<?xml version="1.0" encoding="UTF-8" standalone="no"?>
<!-- Created with Inkscape (http://www.inkscape.org/) -->

<svg
   width="512"
   height="512"
   viewBox="0 0 512 512"
   version="1.1"
   id="svg1"
   xml:space="preserve"
   inkscape:version="1.4.2 (ebf0e940, 2025-05-08)"
   sodipodi:docname="logo.svg"
   xmlns:inkscape="http://www.inkscape.org/namespaces/inkscape"
   xmlns:sodipodi="http://sodipodi.sourceforge.net/DTD/sodipodi-0.dtd"
   xmlns:xlink="http://www.w3.org/1999/xlink"
   xmlns="http://www.w3.org/2000/svg"
   xmlns:svg="http://www.w3.org/2000/svg"><sodipodi:namedview
     id="namedview1"
     pagecolor="#ffffff"
     bordercolor="#000000"
     borderopacity="0.25"
     inkscape:showpageshadow="2"
     inkscape:pageopacity="0.0"
     inkscape:pagecheckerboard="0"
     inkscape:deskcolor="#d1d1d1"
     inkscape:document-units="px"
     inkscape:zoom="1.0700275"
     inkscape:cx="219.62052"
     inkscape:cy="249.5263"
     inkscape:window-width="1472"
     inkscape:window-height="829"
     inkscape:window-x="0"
     inkscape:window-y="34"
     inkscape:window-maximized="1"
     inkscape:current-layer="layer1" /><defs
     id="defs1"><linearGradient
       id="linearGradient1"
       inkscape:collect="always"><stop
         style="stop-color:#0657ff;stop-opacity:1;"
         offset="0"
         id="stop1" /><stop
         style="stop-color:#e791ff;stop-opacity:1;"
         offset="1"
         id="stop2" /></linearGradient><linearGradient
       inkscape:collect="always"
       xlink:href="#linearGradient1"
       id="linearGradient2"
       x1="168.59557"
       y1="452.27066"
       x2="342.64725"
       y2="61.344215"
       gradientUnits="userSpaceOnUse" /></defs><g
     inkscape:label="Layer 1"
     inkscape:groupmode="layer"
     id="layer1"><path
       style="fill:url(#linearGradient2);stroke-width:1.09751"
       d="m 252.98705,501.54803 c -0.48183,-0.28019 -1.33674,-0.92602 -1.89982,-1.43517 -2.39693,-2.16732 -2.28491,1.0386 -2.27347,-65.06639 0.0117,-67.91293 0.0699,-66.30471 -2.86577,-79.30996 -3.13083,-13.86998 -9.19517,-25.2263 -18.36182,-34.38507 -7.35345,-7.34714 -14.45328,-11.83922 -23.21903,-14.69074 -3.79369,-1.2341 -5.0253,-1.43092 -9.19837,-1.47003 -5.86294,-0.055 -9.72516,0.81279 -15.38741,3.45707 -7.129,3.32924 -12.22821,7.7634 -20.90636,18.17964 -11.92949,14.31877 -17.65016,19.68674 -26.7111,25.06427 -10.02952,5.95236 -20.63241,9.19996 -34.103216,10.44559 -9.099121,0.8414 -13.392562,-0.14871 -15.402967,-3.55206 -1.073835,-1.81786 -0.962613,-6.27002 0.203786,-8.15728 1.55271,-2.51235 3.277587,-3.06319 10.468274,-3.34304 20.983323,-0.81664 35.752473,-8.13271 48.862853,-24.20475 10.26291,-12.58133 11.92903,-14.41253 17.28001,-18.99215 1.80557,-1.5453 3.34149,-2.95311 3.41314,-3.12845 0.13569,-0.33206 -2.65539,-0.23942 -14.82976,0.49222 -7.13739,0.42892 -24.79817,0.56027 -28.22621,0.20994 -0.96364,-0.0985 -3.23038,-0.30084 -5.0372,-0.44967 -7.65258,-0.63036 -16.773071,-2.33696 -22.776891,-4.26197 -12.703371,-4.07309 -21.827521,-8.64254 -30.880212,-15.46509 -7.403763,-5.57984 -16.999509,-15.2628 -18.657514,-18.82709 -1.64641,-3.53935 -0.794584,-6.75261 2.445181,-9.22371 1.794544,-1.36875 5.29326,-1.91124 7.306042,-1.13281 0.642458,0.24846 3.476094,3.02079 6.296969,6.16074 2.820876,3.13994 6.762625,7.07051 8.759444,8.73458 7.399251,6.16629 19.423123,12.48334 29.153608,15.31661 5.746913,1.67335 15.491513,3.52027 15.982563,3.02922 0.13632,-0.13632 -0.75014,-1.61998 -1.96991,-3.29701 -2.6052,-3.58181 -5.11839,-8.86318 -7.5493,-15.86446 -2.15726,-6.21316 -3.460735,-11.97385 -5.412632,-23.92092 -2.415538,-14.78497 -5.357617,-23.02474 -11.041766,-30.92429 -2.45439,-3.41099 -7.459686,-8.62182 -11.515143,-11.98799 -5.383894,-4.46883 -13.492588,-8.66341 -22.430474,-11.60316 -4.512492,-1.48421 -5.869393,-2.13164 -7.16444,-3.41845 -2.607737,-2.59116 -3.092095,-5.26441 -1.514224,-8.3573 1.283757,-2.51637 3.18659,-3.68043 6.342531,-3.88004 2.201886,-0.13928 3.603796,0.14253 8.340962,1.67668 7.187259,2.32763 17.843658,7.44539 20.88493,10.03004 0.31785,0.27013 1.957669,1.50728 3.644035,2.74919 5.11982,3.7705 12.795661,11.83093 16.397232,17.21879 7.331669,10.96799 10.313829,19.94084 13.393069,40.29758 2.86264,18.92488 8.59889,30.4244 19.04862,38.187 5.8915,4.37652 5.95778,4.384 27.01073,3.04687 0.52178,-0.0331 0.91599,-0.0976 0.87603,-0.14319 -0.04,-0.0457 -1.45242,-1.58723 -3.13879,-3.42581 -8.99986,-9.81225 -15.63106,-23.45293 -18.55817,-38.17505 -1.97444,-9.93058 -2.2065,-15.65851 -0.74863,-18.47774 1.79785,-3.47665 7.533,-4.405 10.59646,-1.71524 2.17538,1.91 2.57142,3.03625 3.66409,10.41966 1.62712,10.9948 3.20177,16.45429 6.94283,24.07162 2.87326,5.8504 6.0774,10.33661 10.57567,14.80732 8.16379,8.11378 15.30772,11.88689 31.24701,16.50333 11.22106,3.24992 20.16084,7.0033 25.92547,10.88484 8.61059,5.79785 16.07751,13.15331 20.77806,20.46789 l 1.81837,2.82961 -0.10031,-10.73142 c -0.0551,-5.90228 -0.0575,-23.64198 -0.005,-39.42155 0.0904,-27.30605 -0.0158,-30.61969 -1.22385,-38.18161 -3.09347,-19.36437 -13.72993,-35.82734 -29.58931,-45.79799 -2.30673,-1.45023 -10.75407,-5.3569 -13.35952,-6.17844 -4.76057,-1.50108 -13.32656,-2.98809 -30.66121,-5.32264 -17.08554,-2.301 -19.31737,-2.64876 -26.83528,-4.1814 -13.67629,-2.78815 -30.45342,-9.01555 -39.45771,-14.64607 -7.14992,-4.47096 -7.932454,-5.0036 -12.769117,-8.69153 -9.761809,-7.44333 -19.982101,-18.48846 -25.611252,-27.67824 -1.502236,-2.45245 -2.170162,-5.77166 -1.610305,-8.00231 0.613798,-2.44557 3.898969,-4.69691 6.853759,-4.69691 3.391322,0 4.365832,0.86701 10.744835,9.55953 8.156988,11.11533 21.71842,22.52439 34.15193,28.73156 16.76269,8.36844 25.72452,10.96525 47.74387,13.83444 3.85456,0.50227 7.74743,1.07992 8.65085,1.28368 0.90341,0.20377 1.64256,0.27198 1.64256,0.15158 0,-0.1204 -0.57291,-0.94227 -1.27313,-1.82636 -1.66864,-2.10683 -5.248,-8.72001 -7.05897,-13.04205 -3.44783,-8.22861 -5.08032,-15.75648 -6.57965,-30.34073 -0.94011,-9.14461 -2.09305,-15.59211 -3.55976,-19.906919 -3.75338,-11.041842 -14.39872,-25.505261 -24.29606,-33.010157 -1.17106,-0.887982 -2.38966,-1.868581 -2.708,-2.17911 -0.31835,-0.310528 -0.72078,-0.564597 -0.89428,-0.564597 -0.17352,0 -1.03374,-0.677477 -1.9116,-1.505506 -3.03604,-2.863676 -3.31461,-7.349027 -0.6378,-10.269236 2.20324,-2.403578 5.43786,-2.978342 8.81656,-1.566628 2.29158,0.95748 9.23258,6.39225 13.49142,10.563704 9.5806,9.384033 14.85251,17.117862 20.26654,29.730766 3.48545,8.119934 4.37825,12.508103 6.59161,32.398233 1.73244,15.56834 5.31074,24.41172 13.96182,34.50523 5.14705,6.00522 8.72179,8.30199 21.31872,13.69723 6.45522,2.76476 10.95888,5.01531 14.5293,7.26052 6.30273,3.96339 13.85934,10.84335 18.34285,16.70035 1.42922,1.86705 2.70799,3.39464 2.8417,3.39464 0.13372,0 0.18251,-40.75203 0.10844,-90.56006 -0.13376,-89.91599 -0.12849,-90.570726 0.74202,-92.060246 1.49958,-2.565944 2.91874,-3.31813 6.25829,-3.317037 3.60032,0.0012 5.04359,0.815544 6.24041,3.521143 0.81522,1.842941 0.85702,3.720394 1.10852,49.787514 0.34922,63.966506 0.28392,59.594996 0.89329,59.798996 0.287,0.096 0.84975,-0.45942 1.25053,-1.23447 0.4008,-0.77504 2.15261,-2.83307 3.89292,-4.57337 8.62027,-8.62027 19.96672,-14.44086 32.44222,-16.64247 16.02702,-2.828349 23.41392,-5.962954 30.42379,-12.910246 3.86761,-3.833091 7.15673,-8.656036 9.64365,-14.140822 2.65209,-5.849043 6.0643,-19.270162 7.28303,-28.646121 0.96399,-7.416012 1.30206,-8.676665 2.76623,-10.315368 1.09795,-1.228814 1.55043,-1.402062 4.08304,-1.563327 3.26362,-0.207811 5.27171,0.527144 6.68465,2.446568 1.37997,1.874636 1.26025,10.115078 -0.26229,18.053721 -2.34077,12.205028 -4.84969,20.470785 -8.47257,27.913393 -4.86603,9.996434 -8.35495,14.145493 -18.64121,22.168352 -6.14283,4.79112 -17.16026,8.86166 -30.33643,11.20817 -11.27978,2.00879 -18.17217,5.47308 -25.29176,12.71228 -4.54382,4.62016 -4.84492,4.99604 -7.2199,9.01316 -2.52567,4.27198 -4.83497,9.73162 -6.15714,14.55671 -2.18328,7.96752 -2.31344,11.06864 -2.36224,56.28148 -0.0249,23.06708 0.10613,41.93979 0.29122,41.93936 0.18506,-4.3e-4 0.87112,-0.83813 1.52459,-1.86157 0.65345,-1.02344 3.01875,-3.88066 5.2562,-6.34938 9.99374,-11.02675 20.66854,-17.45354 38.42508,-23.13389 6.28173,-2.00954 10.59508,-3.96558 14.45414,-6.55472 7.38235,-4.95301 12.97721,-10.59608 17.24446,-17.39301 6.0061,-9.56661 8.30414,-16.68198 11.27645,-34.91502 2.70604,-16.59958 6.81141,-28.65636 12.83448,-37.69265 1.89532,-2.8435 9.00878,-11.62863 11.74346,-14.50317 2.26923,-2.38528 9.27381,-8.20114 13.72656,-11.397039 6.67555,-4.791312 20.70516,-11.723953 25.56204,-12.631318 4.28498,-0.800522 6.98936,0.815317 7.93049,4.738415 1.17389,4.893317 -1.19393,8.223443 -7.2115,10.142313 -3.83446,1.222719 -13.12923,6.113439 -17.89362,9.415239 -4.72112,3.27181 -11.30923,9.23411 -15.52865,14.05355 -2.72529,3.11284 -7.09434,9.83701 -9.48332,14.59526 -3.95343,7.87426 -5.57922,14.0876 -7.91898,30.26451 -1.50294,10.3911 -4.76781,21.39639 -8.64127,29.12814 -2.64017,5.27001 -7.93753,13.15387 -10.93781,16.27835 -2.63719,2.74637 -2.65173,2.7754 -1.39022,2.7754 2.67526,0 10.73811,-1.83331 17.26073,-3.92471 11.286,-3.61872 20.45577,-8.72809 26.66083,-14.85533 9.36117,-9.24378 13.73373,-17.72571 16.51193,-32.02996 0.6355,-3.27204 1.56894,-6.66709 2.08982,-7.601 1.7634,-3.16165 6.00828,-4.24941 9.54391,-2.44567 2.29727,1.17199 3.55729,3.84354 3.50673,7.43519 -0.0683,4.84615 -2.84504,15.33551 -6.19921,23.41731 -4.51947,10.88957 -14.11758,22.19849 -25.05484,29.52076 -7.19995,4.8202 -19.27153,10.08394 -28.65273,12.49383 -4.33875,1.11457 -15.2561,2.80679 -21.40234,3.31744 -3.13183,0.2602 -5.98989,0.55553 -6.35125,0.65629 -0.36137,0.10075 -3.12087,0.39784 -6.13224,0.66018 -13.52292,1.1781 -22.98384,3.91428 -31.84015,9.20844 -14.20026,8.48868 -24.73826,23.75373 -29.02159,42.03989 -2.22984,9.5195 -2.21274,9.01518 -2.21274,65.26168 0,33.47337 0.15349,52.56494 0.4226,52.56494 0.23244,0 0.65457,-0.44349 0.93808,-0.98553 1.1097,-2.12171 7.32829,-9.35014 11.17925,-12.99468 5.15429,-4.87802 10.5399,-8.69762 17.34406,-12.30082 l 5.3764,-2.84711 0.32215,-6.751 c 0.60875,-12.75682 3.98391,-27.46465 8.42494,-36.71321 3.16516,-6.59151 6.94754,-11.99564 12.31461,-17.59473 4.92936,-5.14244 9.37159,-8.49957 17.97454,-13.58387 11.51741,-6.80674 18.48819,-12.87275 23.45065,-20.40691 4.91673,-7.46476 7.18561,-12.62032 8.92449,-20.27908 1.16592,-5.13514 2.0407,-6.89508 4.12554,-8.30006 2.64812,-1.78458 7.43032,-1.04754 9.65685,1.48833 1.96279,2.23552 2.08922,3.99849 0.68625,9.57012 -2.72203,10.81003 -7.91675,22.026 -13.25912,28.62782 l -1.19018,1.47077 5.67727,-0.27361 c 16.41657,-0.79115 19.85608,-1.08845 26.09042,-2.25519 15.48594,-2.89815 25.74435,-7.27153 36.96708,-15.75983 4.85984,-3.67572 13.15626,-12.55366 16.81313,-17.99159 2.0111,-2.99059 3.74212,-4.11178 6.34818,-4.11178 4.21136,0 7.28809,3.12481 7.27661,7.39028 -0.009,3.10923 -3.2465,8.1436 -9.89677,15.38662 -0.99537,1.08409 -2.43378,2.69455 -3.19643,3.57881 -3.77244,4.37384 -14.60795,12.43575 -21.80774,16.22556 -11.17684,5.88321 -25.30797,9.90102 -40.43374,11.49626 -5.37982,0.56738 -6.57331,0.65721 -11.82646,0.8901 -17.00604,0.75396 -18.30287,0.8796 -24.74798,2.39767 -11.1367,2.62315 -19.70314,7.18111 -26.73778,14.22643 -9.82897,9.8439 -15.03817,23.15816 -16.76462,42.84895 -0.36986,4.21835 -0.31606,4.29549 2.37293,3.40201 4.11486,-1.36726 10.94448,-1.87229 29.96004,-2.21543 20.56825,-0.37117 22.0102,-0.5027 31.15726,-2.84211 9.58483,-2.45136 17.21272,-5.90146 24.70938,-11.17611 4.50384,-3.16889 14.36249,-12.89684 17.28223,-17.05309 4.37782,-6.23183 7.28941,-8.32734 10.7827,-7.76046 3.6155,0.58672 6.67784,4.36757 6.15369,7.59752 -0.76237,4.69795 -8.33091,14.11319 -19.12648,23.79329 -11.22095,10.06152 -23.79168,16.42074 -39.46582,19.96474 -9.48656,2.14495 -13.79136,2.49282 -32.14999,2.59797 -13.5673,0.0777 -17.98404,0.24848 -21.46284,0.82978 -16.96536,2.83492 -29.09821,8.53139 -38.78228,18.20861 -9.11311,9.10666 -15.66021,20.64904 -18.76641,33.08478 -2.51257,10.05914 -3.07909,18.40267 -3.1017,45.68074 -0.0142,17.13585 -0.0605,18.17482 -0.8811,19.78339 -1.2952,2.53879 -3.1865,3.68645 -6.34254,3.84873 -1.47719,0.076 -3.03384,-0.089 -3.52277,-0.37336 z M 355.3811,352.20852 c -3.9386,-0.7773 -6.08112,-2.43203 -8.12653,-6.27638 -0.7687,-1.44475 -0.9604,-2.543 -0.96461,-5.52623 -0.004,-3.25089 0.14258,-3.97316 1.16022,-5.69422 2.57991,-4.36323 6.13789,-6.34969 11.31802,-6.31899 3.99075,0.0237 6.07978,0.96856 8.68521,3.9285 2.35541,2.6759 2.84907,4.33309 2.61563,8.7807 -0.17096,3.25713 -0.34975,3.88413 -1.65163,5.79193 -1.87199,2.74327 -4.84512,4.7628 -7.84742,5.33047 -2.62429,0.49618 -2.59424,0.49627 -5.18889,-0.0158 z m -159.69593,-0.65188 c -2.66604,-0.97807 -4.85848,-3.01356 -6.44547,-5.98408 -3.35755,-6.28469 -1.07892,-13.31233 5.35956,-16.52968 8.10405,-4.04964 16.55944,1.17401 17.32431,10.70278 0.18493,2.30384 0.0439,3.12597 -0.87457,5.09815 -2.79579,6.00325 -9.41484,8.89527 -15.36383,6.71283 z m 111.83502,-70.08007 c -2.76202,-0.85762 -4.85926,-2.75336 -6.54501,-5.91614 -1.35429,-2.54088 -1.43322,-2.92446 -1.24615,-6.05557 0.23193,-3.88176 1.25573,-6.23667 3.6101,-8.30384 2.91966,-2.56349 4.00043,-2.92333 8.78023,-2.92333 4.05373,0 4.52055,0.0912 6.26364,1.22386 2.10138,1.36546 4.24362,4.42504 4.96545,7.09173 0.65175,2.40782 0.24346,6.67478 -0.84235,8.80313 -1.9918,3.90427 -6.52278,6.77462 -10.61202,6.72271 -1.32156,-0.0168 -3.28981,-0.30593 -4.37389,-0.64255 z M 197.13702,241.03078 c -5.48623,-1.7988 -9.19812,-6.54682 -9.19309,-11.75925 0.003,-3.37806 0.62253,-5.42 2.31469,-7.63231 2.1582,-2.82164 5.06324,-4.3975 8.5633,-4.64523 5.64945,-0.39986 9.35145,1.63591 11.78358,6.47993 1.12736,2.24534 1.42079,3.37035 1.4232,5.45662 0.005,4.70266 -3.2067,9.73832 -7.30387,11.45024 -1.81899,0.76002 -6.12676,1.12904 -7.58781,0.65 z m 109.56188,-45.9169 c -2.3665,-0.83628 -5.1164,-3.52064 -6.2638,-6.11453 -1.18904,-2.68803 -1.16889,-7.78001 0.0402,-10.14997 1.36688,-2.67931 3.03213,-4.40144 5.432,-5.61754 4.8362,-2.45068 10.32864,-1.53862 13.86992,2.30323 2.45816,2.66678 3.21499,4.59359 3.25215,8.2797 0.0497,4.92816 -2.46355,8.94037 -6.99661,11.16967 -2.17172,1.06803 -6.50768,1.12816 -9.33383,0.12944 z m 146.02399,-6.70232 c -5.07855,-1.61225 -8.17073,-5.80378 -8.23579,-11.16378 -0.12592,-10.37418 12.87397,-15.97495 20.16234,-8.68659 2.28983,2.28984 3.22227,4.31132 3.50403,7.59653 0.272,3.17151 -0.40759,5.54038 -2.30074,8.01978 -2.29829,3.00998 -4.86484,4.34328 -8.68647,4.51258 -1.72113,0.0763 -3.72064,-0.049 -4.44337,-0.27852 z M 206.16979,145.7194 c -3.75124,-1.33701 -7.26522,-6.36073 -7.2736,-10.39861 -0.005,-2.60631 1.45146,-6.5472 3.12495,-8.4532 0.70804,-0.80641 2.21541,-2.01559 3.34973,-2.68708 1.78743,-1.05812 2.52954,-1.22242 5.56653,-1.23236 2.5295,-0.009 3.89678,0.20227 4.91582,0.75702 1.97179,1.07339 4.66352,3.89104 5.59758,5.85942 1.00582,2.11963 1.36691,6.9804 0.67442,9.07868 -0.79763,2.41684 -3.64198,5.7366 -5.81738,6.78968 -2.28756,1.10739 -7.4273,1.25261 -10.13805,0.28645 z m -86.8372,-22.75727 c -2.33089,-0.72922 -5.02977,-2.90676 -6.16601,-4.97494 -1.37854,-2.50917 -2.06367,-6.97531 -1.43137,-9.33044 0.96139,-3.58087 3.76019,-6.4697 7.85572,-8.1084 2.44729,-0.979219 7.47316,-0.659279 9.15298,0.58266 0.64749,0.47872 1.59942,1.00438 2.11542,1.16815 1.16543,0.36989 3.1722,2.95141 3.91953,5.04209 0.68606,1.91931 0.75531,5.81597 0.14257,8.02226 -1.21709,4.38239 -6.54999,8.25067 -11.29723,8.19459 -1.36418,-0.0161 -3.2954,-0.2843 -4.29161,-0.59597 z M 308.10877,78.417832 c -7.52963,-1.34223 -11.91185,-9.251722 -8.89923,-16.062242 1.36622,-3.088574 2.81393,-4.710582 5.31828,-5.95855 4.57815,-2.281388 10.51615,-1.290798 13.97816,2.331867 7.88717,8.253165 0.79469,21.683998 -10.39721,19.688925 z"
       id="path1" /></g></svg>
